<?xml version="1.0" encoding="UTF-8" standalone="no"?>
<!-- Created with Inkscape (http://www.inkscape.org/) -->

<svg
   xmlns:dc="http://purl.org/dc/elements/1.1/"
   xmlns:cc="http://creativecommons.org/ns#"
   xmlns:rdf="http://www.w3.org/1999/02/22-rdf-syntax-ns#"
   xmlns:svg="http://www.w3.org/2000/svg"
   xmlns="http://www.w3.org/2000/svg"
   xmlns:sodipodi="http://sodipodi.sourceforge.net/DTD/sodipodi-0.dtd"
   xmlns:inkscape="http://www.inkscape.org/namespaces/inkscape"
   width="942"
   height="675"
   id="svg2"
   version="1.1"
   inkscape:version="0.48.0 r9654"
   sodipodi:docname="Wisteria_sinensis_anatomia_en.svg"
   style="display:inline">
  <defs
     id="defs4">
    <clipPath
       clipPathUnits="userSpaceOnUse"
       id="clipPath3784">
      <path
         sodipodi:nodetypes="sscsccccccccccss"
         inkscape:connector-curvature="0"
         id="path3786"
         d="M 70.911146,550.21173 C 117.82318,549.3604 341.52789,485.34208 357.53084,422.17618 c 2.38152,-9.4002 2.44277,-20.53634 4.11963,-27.06312 6.17455,-16.72082 12.86263,-19.99236 21.67394,-20.07186 15.02937,-0.1356 29.32858,3.36771 42.58128,10.17532 -0.9059,13.8166 -3.18426,28.34158 -8.15386,44.25566 7.85223,17.29585 29.2643,25.74176 49.13225,35.19546 -15.23959,2.44608 -21.63525,15.16103 -27.24923,28.78361 19.7687,-5.25797 38.76028,-9.02381 55.26507,-8.01481 -12.90378,6.52916 -29.12569,19.22912 -45.71739,32.61678 -14.2099,7.85556 -35.49359,-2.14293 -55.68321,-17.07503 -10.83258,-8.36465 -22.04287,-14.61403 -31.63978,-29.89871 -2.14984,-1.72664 -5.61638,-2.31814 -11.56872,-0.76663 -66.46742,33.69313 -124.35026,67.0091 -276.604111,104.47125 -14.6619,1.58573 -19.211416,-1.32233 -16.098651,-8.99052 5.177098,-12.7536 10.29081,-15.52682 13.323088,-15.58185 z"
         style="fill:#61312f;fill-opacity:1;stroke:#000000;stroke-width:1px;stroke-linecap:butt;stroke-linejoin:miter;stroke-opacity:1" />
    </clipPath>
    <filter
       inkscape:collect="always"
       id="filter3824"
       color-interpolation-filters="sRGB">
      <feGaussianBlur
         inkscape:collect="always"
         stdDeviation="2.6098201"
         id="feGaussianBlur3826" />
    </filter>
    <filter
       inkscape:collect="always"
       id="filter3840"
       color-interpolation-filters="sRGB">
      <feGaussianBlur
         inkscape:collect="always"
         stdDeviation="3.1822434"
         id="feGaussianBlur3842" />
    </filter>
    <clipPath
       clipPathUnits="userSpaceOnUse"
       id="clipPath3862">
      <path
         sodipodi:nodetypes="sccccccccs"
         inkscape:connector-curvature="0"
         id="path3864"
         d="M 232.49848,76.182938 C 190.84627,242.34684 355.73962,295.69827 414.11357,327.2206 c 14.97248,37.10763 9.28999,69.38913 4.99884,101.99573 5.28771,17.09393 13.07925,20.48211 21.88301,18.32951 26.09259,-57.5947 28.26424,-105.46504 8.6417,-144.47559 C 416.84961,245.03874 381.77545,185.04717 351.37495,129.06176 337.54378,102.59091 321.93776,80.592848 303.46646,65.815574 294.37526,59.283416 287.47656,51.185127 280.95622,42.816565 273.13941,28.872721 263.48002,20.452431 248.48015,28.041444 243.98264,43.140328 237.1964,57.441441 232.49848,76.182938 z"
         style="fill:none;stroke:#000000;stroke-width:1px;stroke-linecap:butt;stroke-linejoin:miter;stroke-opacity:1" />
    </clipPath>
    <filter
       inkscape:collect="always"
       id="filter3886"
       x="-0.13586646"
       width="1.2717329"
       y="-0.16768359"
       height="1.3353672"
       color-interpolation-filters="sRGB">
      <feGaussianBlur
         inkscape:collect="always"
         stdDeviation="5.3785197"
         id="feGaussianBlur3888" />
    </filter>
    <filter
       inkscape:collect="always"
       id="filter3894"
       x="-0.10234548"
       width="1.2046911"
       y="-0.051835839"
       height="1.1036717"
       color-interpolation-filters="sRGB">
      <feGaussianBlur
         inkscape:collect="always"
         stdDeviation="5.8988259"
         id="feGaussianBlur3896" />
    </filter>
    <filter
       inkscape:collect="always"
       id="filter3922"
       color-interpolation-filters="sRGB">
      <feGaussianBlur
         inkscape:collect="always"
         stdDeviation="3.7722267"
         id="feGaussianBlur3924" />
    </filter>
    <filter
       inkscape:collect="always"
       id="filter3932"
       color-interpolation-filters="sRGB">
      <feGaussianBlur
         inkscape:collect="always"
         stdDeviation="3.6589797"
         id="feGaussianBlur3934" />
    </filter>
    <clipPath
       clipPathUnits="userSpaceOnUse"
       id="clipPath3943">
      <path
         sodipodi:nodetypes="csccccc"
         inkscape:connector-curvature="0"
         id="path3945"
         d="M 493.31919,405.26081 C 540.41979,339.67324 529.76284,264.12604 474.15413,198.26973 406.02824,117.58956 357.58312,97.782613 314.0039,75.190186 l -24.94942,30.247184 165.58613,253.68603 0.90598,41.677 z"
         style="fill:#7d4865;fill-opacity:1;stroke:#000000;stroke-width:1px;stroke-linecap:butt;stroke-linejoin:miter;stroke-opacity:1" />
    </clipPath>
    <filter
       inkscape:collect="always"
       id="filter3951"
       x="-0.12563564"
       width="1.2512712"
       y="-0.14203587"
       height="1.2840717"
       color-interpolation-filters="sRGB">
      <feGaussianBlur
         inkscape:collect="always"
         stdDeviation="10.37581"
         id="feGaussianBlur3953" />
    </filter>
    <clipPath
       clipPathUnits="userSpaceOnUse"
       id="clipPath3971">
      <path
         sodipodi:nodetypes="cssssssscc"
         inkscape:connector-curvature="0"
         id="path3973"
         d="m 484.99947,407.52757 c -3.86528,-36.47766 29.52934,-59.74896 49.20194,-65.23355 60.45978,-16.85577 68.58262,-4.30715 97.01005,1.67265 27.53739,5.79258 52.93022,3.16742 78.68129,-9.40868 15.69597,-7.66547 31.7938,-12.26548 50.13913,-17.76452 14.77393,-4.42851 31.24055,-8.40469 49.65858,-11.57664 16.35353,-2.8164 36.32862,-1.20566 42.3722,22.78992 10.75276,42.69301 4.51983,58.41907 -3.1361,74.64224 -25.0335,53.04681 -57.14163,79.231 -86.83515,105.93483 z"
         style="fill:none;stroke:#000000;stroke-width:1px;stroke-linecap:butt;stroke-linejoin:miter;stroke-opacity:1" />
    </clipPath>
    <filter
       inkscape:collect="always"
       id="filter3987"
       x="-0.081516132"
       width="1.1630323"
       y="-0.10126227"
       height="1.2025245"
       color-interpolation-filters="sRGB">
      <feGaussianBlur
         inkscape:collect="always"
         stdDeviation="7.6294216"
         id="feGaussianBlur3989" />
    </filter>
    <clipPath
       clipPathUnits="userSpaceOnUse"
       id="clipPath4020">
      <path
         sodipodi:nodetypes="csssssssscsc"
         inkscape:connector-curvature="0"
         id="path4022"
         d="m 482.72575,414.45701 c 0.0671,-19.29298 64.02317,-46.96762 102.79442,-39.37709 42.57642,8.33549 84.09207,4.2013 120.14751,-8.1542 15.7072,-5.38255 28.31864,-12.61308 37.28476,-19.6537 13.21805,-10.37944 24.26874,0.27 26.76139,9.47838 10.49738,38.77949 8.89614,75.05409 6.41159,111.44065 -2.03293,29.77256 -16.92954,49.56279 -35.12434,64.60631 -50.06434,41.39335 -91.54801,32.73498 -119.93843,28.08667 -37.72738,-6.17704 -57.77903,-35.28813 -80.42357,-60.98222 -7.32632,-8.31296 -18.44936,-16.87323 -48.57472,-14.63573 0,0 -11.08089,-63.35182 -9.68707,-66.76682 1.39382,-3.41501 0.34846,-4.04225 0.34846,-4.04225 z"
         style="fill:none;stroke:#000000;stroke-width:1px;stroke-linecap:butt;stroke-linejoin:miter;stroke-opacity:1" />
    </clipPath>
    <filter
       inkscape:collect="always"
       id="filter4090"
       x="-0.049026635"
       width="1.0980533"
       y="-0.11540116"
       height="1.2308023"
       color-interpolation-filters="sRGB">
      <feGaussianBlur
         inkscape:collect="always"
         stdDeviation="4.9642834"
         id="feGaussianBlur4092" />
    </filter>
    <filter
       inkscape:collect="always"
       id="filter4094"
       color-interpolation-filters="sRGB">
      <feGaussianBlur
         inkscape:collect="always"
         stdDeviation="7.6378063"
         id="feGaussianBlur4096" />
    </filter>
    <filter
       inkscape:collect="always"
       id="filter4102"
       color-interpolation-filters="sRGB">
      <feGaussianBlur
         inkscape:collect="always"
         stdDeviation="5.0701787"
         id="feGaussianBlur4104" />
    </filter>
    <filter
       inkscape:collect="always"
       id="filter4110"
       x="-0.086412191"
       width="1.1728244"
       y="-0.11567447"
       height="1.2313489"
       color-interpolation-filters="sRGB">
      <feGaussianBlur
         inkscape:collect="always"
         stdDeviation="9.0938929"
         id="feGaussianBlur4112" />
    </filter>
    <filter
       inkscape:collect="always"
       id="filter4120"
       x="-0.026725616"
       width="1.0534512"
       y="-0.11009923"
       height="1.2201985"
       color-interpolation-filters="sRGB">
      <feGaussianBlur
         inkscape:collect="always"
         stdDeviation="2.8415823"
         id="feGaussianBlur4122" />
    </filter>
    <clipPath
       clipPathUnits="userSpaceOnUse"
       id="clipPath4142">
      <path
         sodipodi:nodetypes="ccccscccccccccccccccccscsc"
         inkscape:connector-curvature="0"
         id="path4144"
         d="m 477.07438,413.21831 c 114.7998,44.37481 222.28987,75.07336 278.83422,10.4541 l 3.21478,3.00586 c -54.94737,55.12955 -103.2559,48.09737 -244.20672,13.02375 24.59774,6.96578 62.09221,18.04196 95.70556,33.14112 53.92748,24.22429 104.0485,45.03157 121.38232,-27.70499 l 1.78571,0.35714 c 0.14644,7.48251 -7.76534,53.31486 -45.9002,57.83732 15.24734,0.84355 43.3803,14.12878 48.43534,-51.43415 l 4.11178,-0.20908 c -7.38858,65.55688 -24.3945,57.82296 -37.49383,63.14273 22.92258,4.60271 38.39309,-9.67319 39.93302,-59.23987 l 2.92702,1.46358 c -0.71884,53.58292 -11.81488,56.04138 -24.3222,63.14273 10.82874,-4.76322 22.6627,-8.32017 19.6529,-29.68963 l 2.57857,-3.55439 c 3.30672,8.95181 -0.51432,17.19085 -1.46351,25.71707 4.18836,-10.73492 9.0952,-21.38004 5.92374,-33.03494 l 3.75,-1.25 c 2.32398,0 1.55776,24.38406 0.64479,24.39738 7.21927,-16.66709 11.91112,-31.87481 9.75251,-56.53079 l 5.64498,-0.62724 c 6.3281,117.29981 -92.52294,94.35794 -210.81118,52.19129 -37.41553,-13.33765 -71.86777,-16.40561 -110.81339,-18.32003 0,0 -28.94962,-37.73895 -30.73379,-40.49219 -3.12948,-4.82924 42.68097,-33.75684 61.46758,-25.78677 z"
         style="fill:#8c8961;fill-opacity:1;stroke:none" />
    </clipPath>
    <filter
       inkscape:collect="always"
       id="filter4174"
       color-interpolation-filters="sRGB">
      <feGaussianBlur
         inkscape:collect="always"
         stdDeviation="0.62403369"
         id="feGaussianBlur4176" />
    </filter>
    <filter
       inkscape:collect="always"
       id="filter4189"
       color-interpolation-filters="sRGB">
      <feGaussianBlur
         inkscape:collect="always"
         stdDeviation="1.9963552"
         id="feGaussianBlur4191" />
    </filter>
  </defs>
  <sodipodi:namedview
     id="base"
     pagecolor="#ffffff"
     bordercolor="#666666"
     borderopacity="1.0"
     inkscape:pageopacity="0.0"
     inkscape:pageshadow="2"
     inkscape:zoom="0.89037037"
     inkscape:cx="471"
     inkscape:cy="337.5"
     inkscape:document-units="px"
     inkscape:current-layer="layer2"
     showgrid="false"
     inkscape:window-width="1440"
     inkscape:window-height="820"
     inkscape:window-x="-8"
     inkscape:window-y="-8"
     inkscape:window-maximized="1" />
  <metadata
     id="metadata7">
    <rdf:RDF>
      <cc:Work
         rdf:about="">
        <dc:format>image/svg+xml</dc:format>
        <dc:type
           rdf:resource="http://purl.org/dc/dcmitype/StillImage" />
        <dc:title />
      </cc:Work>
    </rdf:RDF>
  </metadata>
  <g
     inkscape:groupmode="layer"
     id="layer2"
     inkscape:label="rys"
     style="display:inline">
    <path
       style="fill:#7b5e58;fill-opacity:1;stroke:none"
       d="m 500.72514,482.81049 -33.75229,14.69218 -49.23864,4.36794 27.79601,-40.50275 z"
       id="path4193"
       inkscape:connector-curvature="0" />
    <path
       style="fill:#7a596b;fill-opacity:1;stroke:none"
       d="m 484.99947,407.52757 c -3.86528,-36.47766 29.52934,-59.74896 49.20194,-65.23355 60.45978,-16.85577 68.58262,-4.30715 97.01005,1.67265 27.53739,5.79258 52.93022,3.16742 78.68129,-9.40868 15.69597,-7.66547 31.7938,-12.26548 50.13913,-17.76452 14.77393,-4.42851 31.24055,-8.40469 49.65858,-11.57664 16.35353,-2.8164 36.32862,-1.20566 42.3722,22.78992 10.75276,42.69301 4.51983,58.41907 -3.1361,74.64224 -25.0335,53.04681 -57.14163,79.231 -86.83515,105.93483 C 723.90374,421.40296 638.29655,382.56279 484.99947,407.52757 z"
       id="path3757"
       inkscape:connector-curvature="0"
       sodipodi:nodetypes="cssssssscc" />
    <path
       style="fill:#61312f;fill-opacity:1;stroke:none"
       d="M 70.911146,550.21173 C 117.82318,549.3604 341.52789,485.34208 357.53084,422.17618 c 2.38152,-9.4002 2.44277,-20.53634 4.11963,-27.06312 6.17455,-16.72082 12.86263,-19.99236 21.67394,-20.07186 15.02937,-0.1356 29.32858,3.36771 42.58128,10.17532 -0.9059,13.8166 -3.18426,28.34158 -8.15386,44.25566 7.85223,17.29585 29.2643,25.74176 49.13225,35.19546 -15.23959,2.44608 -21.63525,15.16103 -27.24923,28.78361 19.7687,-5.25797 38.76028,-9.02381 55.26507,-8.01481 -12.90378,6.52916 -29.12569,19.22912 -45.71739,32.61678 -14.2099,7.85556 -35.49359,-2.14293 -55.68321,-17.07503 -10.83258,-8.36465 -22.04287,-14.61403 -31.63978,-29.89871 -2.14984,-1.72664 -5.61638,-2.31814 -11.56872,-0.76663 -66.46742,33.69313 -124.35026,67.0091 -276.604111,104.47125 -14.6619,1.58573 -19.211416,-1.32233 -16.098651,-8.99052 5.177098,-12.7536 10.29081,-15.52682 13.323088,-15.58185 z"
       id="path2997"
       inkscape:connector-curvature="0"
       sodipodi:nodetypes="sscsccccccccccss" />
    <path
       style="fill:#7d4865;fill-opacity:1;stroke:none"
       d="M 493.31919,405.26081 C 540.41979,339.67324 529.76284,264.12604 474.15413,198.26973 406.02824,117.58956 357.58312,97.782613 314.0039,75.190186 l -24.94942,30.247184 165.58613,253.68603 0.90598,41.677 z"
       id="path3001"
       inkscape:connector-curvature="0"
       sodipodi:nodetypes="csccccc" />
    <path
       clip-path="url(#clipPath3943)"
       sodipodi:nodetypes="ccscc"
       inkscape:connector-curvature="0"
       id="path3955"
       d="m 429.9804,282.18989 c -53.01169,-89.26992 105.80472,15.55015 101.8523,105.79287 0,0 37.51342,-262.61178 -155.74156,-322.174988 -3.51798,-1.084277 -102.82312,-1.239816 -102.82312,-1.239816 z"
       style="fill:#74435e;fill-opacity:1;stroke:none;filter:url(#filter3951)" />
    <g
       id="g3965"
       clip-path="url(#clipPath3971)">
      <path
         sodipodi:nodetypes="cccccc"
         inkscape:connector-curvature="0"
         id="path3963"
         d="m 619.96672,368.38602 c 82.05875,5.26851 135.71669,30.09825 147.12979,122.98253 l 77.49584,-93.7812 -32.57072,-76.93427 -55.59484,-10.10816 z"
         style="fill:#633554;fill-opacity:1;stroke:none;filter:url(#filter3987)" />
      <path
         inkscape:connector-curvature="0"
         id="path3957"
         d="m 646.2026,322.6619 c -22.20062,3.21155 -41.73578,15.36532 -59.5712,28.29613 -3.91326,16.19986 18.84187,-3.04285 25.15172,3.63922 -1.93722,6.56449 -24.3648,23.40385 -5.62619,19.27083 16.60747,-4.32994 33.12077,-10.24576 50.355,-10.62438 13.77035,2.33805 27.22959,-1.04536 39.96524,-6.09018 29.09055,-10.50592 57.35507,-27.34418 89.18844,-26.74487 17.30075,1.87693 25.12141,19.9206 26.76766,35.22456 4.67663,33.63673 -10.4169,66.3354 -28.36641,93.82962 -9.52133,13.65896 -20.73703,27.09525 -24.16456,43.83459 13.14061,12.73616 25.04386,-11.5208 36.97389,-15.69945 45.40685,-35.97059 81.10179,-86.80223 92.13357,-144.2532 2.70455,-23.19095 -10.3007,-48.09718 -33.01317,-55.83391 -34.84101,-15.34261 -74.22493,-10.33975 -110.51322,-3.77342 -34.94073,7.82045 -65.90131,26.73653 -99.28077,38.92446 z"
         style="fill:#5c2b53;fill-opacity:1;stroke:none;filter:url(#filter4094)" />
    </g>
    <path
       style="fill:#633c57;fill-opacity:1;stroke:none;filter:url(#filter3951)"
       d="m 429.9804,282.18989 c -164.47683,-246.635019 32.42038,-81.59639 107.4115,-6.18531 0,0 -159.44111,-207.019777 -161.30076,-210.196808 -1.85965,-3.17703 -102.82312,-1.239816 -102.82312,-1.239816 z"
       id="path3939"
       inkscape:connector-curvature="0"
       sodipodi:nodetypes="ccscc"
       clip-path="url(#clipPath3943)" />
    <path
       style="fill:#8c756e;fill-opacity:1;stroke:none;filter:url(#filter4189)"
       d="m 459.30314,370.5656 c 7.32287,28.58148 28.49401,31.46308 46.1789,28.56049 -14.1201,23.52137 -40.33626,30.54335 -66.73779,34.51255 z"
       id="path3759"
       inkscape:connector-curvature="0"
       sodipodi:nodetypes="cccc" />
    <path
       style="fill:#83616e;fill-opacity:1;stroke:none"
       d="m 468.68665,414.45701 c 22.52966,-20.41611 78.06227,-46.96762 116.83352,-39.37709 42.57642,8.33549 84.09207,4.2013 120.14751,-8.1542 15.7072,-5.38255 28.31864,-12.61308 37.28476,-19.6537 13.21805,-10.37944 24.26874,0.27 26.76139,9.47838 10.49738,38.77949 8.89614,75.05409 6.41159,111.44065 -2.03293,29.77256 -16.92954,49.56279 -35.12434,64.60631 -50.06434,41.39335 -91.54801,32.73498 -119.93843,28.08667 -37.72738,-6.17704 -57.77903,-35.28813 -80.42357,-60.98222 -7.32632,-8.31296 -18.44936,-16.87323 -48.57472,-14.63573 0,0 -11.08089,-63.35182 -9.68707,-66.76682 1.39382,-3.41501 -13.69064,-4.04225 -13.69064,-4.04225 z"
       id="path3755"
       inkscape:connector-curvature="0"
       sodipodi:nodetypes="csssssssscsc" />
    <g
       id="g4014"
       clip-path="url(#clipPath4020)">
      <path
         inkscape:connector-curvature="0"
         id="path3993"
         d="m 693.90959,360.09333 c -11.40573,25.99671 -25.97771,50.65661 -51.28447,63.43036 -15.71142,7.93044 -37.8368,13.16669 -54.20187,19.72624 27.99851,5.50327 57.49641,-2.38315 80.925,-18.1208 -11.51703,13.23404 -23.96434,26.35241 -40.1751,33.77038 -9.40302,5.13375 -87.28828,12.05695 -97.45817,15.40369 5.80448,9.96712 69.34225,52.52436 78.69534,54.69258 35.09612,29.73233 147.95937,24.65026 166.76986,-53.79823 20.90544,-18.36772 -11.75543,-65.22077 -3.78108,-91.40644 2.06895,-10.28817 -2.52738,-23.77986 -14.05462,-25.75587 -14.21588,-3.20243 -28.45688,2.95849 -42.75653,1.05202 -7.5671,-0.0231 -15.1666,-0.03 -22.67836,1.00607 z"
         style="fill:#582b48;fill-opacity:1;stroke:none;filter:url(#filter4110)"
         sodipodi:nodetypes="cscccccccccc" />
      <path
         sodipodi:nodetypes="cccccccscccccccccc"
         inkscape:connector-curvature="0"
         id="path3991"
         d="m 684.54659,361.08569 c -5.29069,13.28685 -17.04995,17.94893 -26.39351,25.83195 12.14834,0.23438 25.49909,-2.53724 42.1173,-13.47754 -1.92237,11.11652 -17.53139,19.6668 -30.88602,28.63977 18.43669,-2.11483 35.6269,-6.36648 48.85607,-17.40849 -5.78522,10.10815 -13.58843,20.21631 -29.76289,30.32446 13.50978,-5.00934 27.08513,-9.1662 39.87105,-23.58569 4.98028,0.49803 -21.43149,34.04246 -21.33944,34.25541 2.0557,4.75593 38.17548,-21.21006 35.37854,-29.20133 0.008,11.98003 -3.38906,23.96007 -12.35441,35.9401 9.40405,-10.08335 20.0537,-19.47469 23.02412,-33.13228 -0.85415,13.85191 -2.60141,27.70383 -10.10815,41.55574 11.3995,-13.29035 23.82267,-26.5807 25.83195,-39.87105 2.37485,14.52172 -1.64902,30.64312 -5.05408,46.60982 15.2351,-17.40849 24.63046,-34.81697 26.39351,-52.22546 l -4.49251,-69.07238 -48.85607,-3.93095 z"
         style="fill:#3c1a32;fill-opacity:1;stroke:none;filter:url(#filter4102)" />
      <path
         style="fill:#795e55;fill-opacity:1;stroke:none;filter:url(#filter4090)"
         d="m 482.85628,473.28044 c 23.80316,7.40365 42.75838,1.23308 76.24046,35.73771 59.9642,69.14676 112.91036,49.39832 166.77602,41.29692 l -50.82698,26.20766 -120.71407,-17.47177 -56.38617,-50.03281 z"
         id="path4036"
         inkscape:connector-curvature="0"
         sodipodi:nodetypes="ccccccc" />
    </g>
    <g
       id="g4231"
       transform="matrix(0.98041555,-0.19693997,0.19693997,0.98041555,-94.934392,178.09303)">
      <path
         sodipodi:type="arc"
         style="fill:#7b5031;fill-opacity:1;fill-rule:nonzero;stroke:none"
         id="path4233"
         sodipodi:cx="756.84796"
         sodipodi:cy="418.50562"
         sodipodi:rx="3.5097754"
         sodipodi:ry="7.1599417"
         d="m 760.35774,418.50562 c 0,3.95432 -1.57138,7.15994 -3.50978,7.15994 -1.93839,0 -3.50977,-3.20562 -3.50977,-7.15994 0,-3.95433 1.57138,-7.15995 3.50977,-7.15995 1.9384,0 3.50978,3.20562 3.50978,7.15995 z"
         transform="matrix(0.6942987,0.71968696,-0.71968696,0.6942987,533.82595,-411.84222)" />
      <path
         style="fill:#69442a;fill-opacity:1;fill-rule:nonzero;stroke:none"
         d="m 761.71311,417.84916 c -0.0154,1.64946 -1.20453,3.93293 -3.25,5.90625 -2.04593,1.97375 -4.38224,3.07555 -6.03125,3.03125 -0.009,0.65315 0.14927,1.19781 0.53125,1.59375 1.34583,1.39504 4.74787,0.30798 7.59375,-2.4375 2.84588,-2.74548 4.06458,-6.10496 2.71875,-7.5 -0.37528,-0.389 -0.92455,-0.57375 -1.5625,-0.59375 z"
         id="path4235"
         inkscape:connector-curvature="0" />
    </g>
    <g
       transform="matrix(0.98041555,-0.19693997,0.19693997,0.98041555,-85.107021,218.52564)"
       id="g4237">
      <path
         transform="matrix(0.6942987,0.71968696,-0.71968696,0.6942987,533.82595,-411.84222)"
         d="m 760.35774,418.50562 c 0,3.95432 -1.57138,7.15994 -3.50978,7.15994 -1.93839,0 -3.50977,-3.20562 -3.50977,-7.15994 0,-3.95433 1.57138,-7.15995 3.50977,-7.15995 1.9384,0 3.50978,3.20562 3.50978,7.15995 z"
         sodipodi:ry="7.1599417"
         sodipodi:rx="3.5097754"
         sodipodi:cy="418.50562"
         sodipodi:cx="756.84796"
         id="path4239"
         style="fill:#7b5031;fill-opacity:1;fill-rule:nonzero;stroke:none"
         sodipodi:type="arc" />
      <path
         inkscape:connector-curvature="0"
         id="path4241"
         d="m 761.71311,417.84916 c -0.0154,1.64946 -1.20453,3.93293 -3.25,5.90625 -2.04593,1.97375 -4.38224,3.07555 -6.03125,3.03125 -0.009,0.65315 0.14927,1.19781 0.53125,1.59375 1.34583,1.39504 4.74787,0.30798 7.59375,-2.4375 2.84588,-2.74548 4.06458,-6.10496 2.71875,-7.5 -0.37528,-0.389 -0.92455,-0.57375 -1.5625,-0.59375 z"
         style="fill:#69442a;fill-opacity:1;fill-rule:nonzero;stroke:none" />
    </g>
    <path
       style="fill:#8c8961;fill-opacity:1;stroke:none"
       d="m 477.07438,413.21831 c 114.7998,44.37481 222.28987,75.07336 278.83422,10.4541 l 3.21478,3.00586 c -54.94737,55.12955 -103.2559,48.09737 -244.20672,13.02375 24.59774,6.96578 62.09221,18.04196 95.70556,33.14112 53.92748,24.22429 104.0485,45.03157 121.38232,-27.70499 l 1.78571,0.35714 c 0.14644,7.48251 -7.76534,53.31486 -45.9002,57.83732 15.24734,0.84355 43.3803,14.12878 48.43534,-51.43415 l 4.11178,-0.20908 c -7.38858,65.55688 -24.3945,57.82296 -37.49383,63.14273 22.92258,4.60271 38.39309,-9.67319 39.93302,-59.23987 l 2.92702,1.46358 c -0.71884,53.58292 -11.81488,56.04138 -24.3222,63.14273 10.82874,-4.76322 22.6627,-8.32017 19.6529,-29.68963 l 2.57857,-3.55439 c 3.30672,8.95181 -0.51432,17.19085 -1.46351,25.71707 4.18836,-10.73492 9.0952,-21.38004 5.92374,-33.03494 l 3.75,-1.25 c 2.32398,0 1.55776,24.38406 0.64479,24.39738 7.21927,-16.66709 11.91112,-31.87481 9.75251,-56.53079 l 5.64498,-0.62724 c 6.3281,117.29981 -92.52294,94.35794 -210.81118,52.19129 -37.41553,-13.33765 -71.86777,-16.40561 -110.81339,-18.32003 0,0 -29.89907,-37.31936 -30.73379,-40.49219 -0.97912,-3.7217 38.58447,-32.57357 61.46758,-25.78677 z"
       id="path3761"
       inkscape:connector-curvature="0"
       sodipodi:nodetypes="ccccscccccccccccccccccscsc" />
    <g
       transform="matrix(0.95270317,-0.30390239,0.30390239,0.95270317,-99.841166,306.01475)"
       id="g4213">
      <path
         transform="matrix(0.6942987,0.71968696,-0.71968696,0.6942987,533.82595,-411.84222)"
         d="m 760.35774,418.50562 c 0,3.95432 -1.57138,7.15994 -3.50978,7.15994 -1.93839,0 -3.50977,-3.20562 -3.50977,-7.15994 0,-3.95433 1.57138,-7.15995 3.50977,-7.15995 1.9384,0 3.50978,3.20562 3.50978,7.15995 z"
         sodipodi:ry="7.1599417"
         sodipodi:rx="3.5097754"
         sodipodi:cy="418.50562"
         sodipodi:cx="756.84796"
         id="path4215"
         style="fill:#7b5031;fill-opacity:1;fill-rule:nonzero;stroke:none"
         sodipodi:type="arc" />
      <path
         inkscape:connector-curvature="0"
         id="path4217"
         d="m 761.71311,417.84916 c -0.0154,1.64946 -1.20453,3.93293 -3.25,5.90625 -2.04593,1.97375 -4.38224,3.07555 -6.03125,3.03125 -0.009,0.65315 0.14927,1.19781 0.53125,1.59375 1.34583,1.39504 4.74787,0.30798 7.59375,-2.4375 2.84588,-2.74548 4.06458,-6.10496 2.71875,-7.5 -0.37528,-0.389 -0.92455,-0.57375 -1.5625,-0.59375 z"
         style="fill:#69442a;fill-opacity:1;fill-rule:nonzero;stroke:none" />
    </g>
    <g
       id="g4126"
       clip-path="url(#clipPath4142)">
      <g
         id="g4130">
        <path
           style="fill:#776d51;fill-opacity:1;stroke:none;filter:url(#filter4120)"
           d="M 430.11025,447.65308 C 542.6023,464.88197 682.9439,517.57825 719.54396,505.66441 658.27443,523.54969 516.75847,454.36862 433.44212,460.12873 z"
           id="path4114"
           inkscape:connector-curvature="0"
           sodipodi:nodetypes="cccc" />
        <path
           sodipodi:nodetypes="cccc"
           inkscape:connector-curvature="0"
           id="path4124"
           d="m 439.09527,458.3228 c 142.25495,37.44519 276.98091,85.64896 293.92623,46.21848 -35.99915,62.81041 -207.27801,-30.51792 -290.59436,-24.75781 z"
           style="fill:#776d51;fill-opacity:1;stroke:none;filter:url(#filter4120)" />
      </g>
      <g
         id="g4136">
        <path
           style="fill:#776d51;fill-opacity:1;stroke:none;filter:url(#filter4120)"
           d="m 463.40625,415.6875 c -32.09749,-28.31425 -26.90826,6.89704 -40.125,10.75 l 5.5625,30.5625 3.84375,0.25 0.75,2.875 c 81.67071,-5.64634 219.26119,60.69123 282.375,46.46875 -33.1237,6.14847 -125.48025,-24.2309 -216.75,-45.3125 11.47205,-13.88258 127.14846,13.57588 127.14846,13.57588 -15.60535,-8.5298 -70.13021,-27.42724 -133.02346,-43.26338 -21.13987,-6.103 -22.24825,-10.77517 -29.78125,-15.90625 z m 256.125,89.96875 c -0.87537,0.25553 -1.74852,0.49829 -2.65625,0.71875 0.93565,-0.20495 1.82587,-0.44845 2.65625,-0.71875 z"
           id="path4138"
           inkscape:connector-curvature="0"
           sodipodi:nodetypes="ccccccccccccc" />
        <path
           style="fill:#514b38;fill-opacity:1;stroke:none;filter:url(#filter4120)"
           d="m 439.09527,458.3228 c 142.25495,37.44519 292.86434,94.78193 309.80966,55.35145 -35.99915,62.81041 -223.16144,-39.65089 -306.47779,-33.89078 z"
           id="path4140"
           inkscape:connector-curvature="0"
           sodipodi:nodetypes="cccc" />
        <path
           style="fill:#7d7656;fill-opacity:1;stroke:none;display:inline;filter:url(#filter4174)"
           d="m 593.04757,457.10755 c 52.80382,23.53447 102.18483,23.53714 146.52465,-11.1184 -48.84155,23.54207 -97.6831,18.84956 -146.52465,11.1184 z"
           id="path4146"
           inkscape:connector-curvature="0"
           sodipodi:nodetypes="ccc" />
      </g>
    </g>
    <path
       style="fill:#7b526d;fill-opacity:1;stroke:none"
       d="M 232.49848,76.182938 C 193.22283,242.92457 355.73962,295.69827 414.11357,327.2206 c 14.97248,37.10763 5.53999,70.10342 1.24884,102.71002 5.28771,17.09393 14.30221,22.57564 23.10597,20.42304 26.09259,-57.5947 30.79128,-108.27286 11.16874,-147.28341 C 416.84961,245.03874 381.77545,185.04717 351.37495,129.06176 337.54378,102.59091 321.93776,80.592848 303.46646,65.815574 294.37526,59.283416 287.47656,51.185127 280.95622,42.816565 273.13941,28.872721 263.48002,20.452431 248.48015,28.041444 243.98264,43.140328 239.53093,58.18686 232.49848,76.182938 z"
       id="path2999"
       inkscape:connector-curvature="0"
       sodipodi:nodetypes="cccccccccc" />
    <g
       id="g3778"
       clip-path="url(#clipPath3784)"
       style="filter:url(#filter3824)">
      <path
         style="fill:#793c3b;fill-opacity:1;stroke:none"
         d="M 53.678462,556.80952 C 187.96342,540.99996 291.2533,502.80416 364.03806,442.57599 365.45185,425.95102 352.2751,423.9166 345.31201,415.66852 L 43.822647,536.40716 z"
         id="path3844"
         inkscape:connector-curvature="0"
         sodipodi:nodetypes="ccccc" />
      <path
         inkscape:connector-curvature="0"
         id="path3763"
         d="m 409.3667,378.06859 c -16.52678,-4.1617 -37.0749,3.47502 -42.2348,20.84742 -2.9404,6.37152 -5.3033,21.49283 -3.0675,23.41482 3.83752,-9.37896 11.97561,-20.35425 23.39646,-18.492 -7.661,2.03202 -13.01816,9.27569 -15.46408,16.94911 -1.75491,4.93749 -7.03042,14.67553 1.54618,7.66291 13.5738,-0.098 -13.56147,19.89106 3.96998,17.50023 -0.68489,4.1871 -5.32191,11.10416 2.46544,7.61306 3.39008,3.02607 -11.88476,11.96899 -0.17702,10.30026 5.54259,0.213 28.06603,-3.24592 26.5915,5.42916 -14.74747,29.74898 35.42681,54.5409 27.5079,58.95909 -33.96829,20.17325 -87.54058,-47.05857 -76.24636,-63.95735 4.77659,-8.80868 -1.76488,-24.11809 -10.94346,-28.2134 -2.42005,-12.89416 2.73718,-44.47913 4.29391,-57.11266 1.92651,-15.96641 14.90528,-31.89339 31.98329,-31.47332 14.18365,0.71521 24.71307,13.59615 29.09459,26.029 0.44335,2.61735 -0.81074,5.42418 -3.20878,6.66276"
         style="fill:#37211e;fill-opacity:1;stroke:none;filter:url(#filter3840)"
         sodipodi:nodetypes="ccccccccccccccccc" />
      <path
         inkscape:connector-curvature="0"
         id="path3771"
         d="m 428.53232,373.96853 c -3.27667,10.66617 -28.12991,19.13582 -22.4292,26.91747 15.53627,3.1988 -5.02587,13.82666 6.27667,20.42461 -6.51033,2.38859 -12.42295,14.43549 -0.97639,13.54181 -1.34233,3.93799 -7.45724,14.21303 1.98999,10.80672 4.5068,6.65669 13.22741,8.70775 4.19882,18.5988 -7.43457,20.46898 19.94746,-11.06448 13.34454,6.93366 -5.62303,3.31424 -11.94082,27.09489 -1.52576,15.36305 11.02502,-12.11419 -3.30899,16.0574 8.7136,8.43949 4.95661,7.757 19.70336,2.54375 26.53661,1.69467 15.84737,-6.49671 27.70933,-24.74487 15.46783,-40.15892 -9.96783,-18.1435 -25.20622,-33.32867 -31.37887,-53.50608 -4.66872,-10.62978 -8.94504,-23.79621 -20.21784,-29.05528 z"
         style="fill:#683c4a;fill-opacity:1;stroke:none" />
    </g>
    <g
       id="g3856"
       clip-path="url(#clipPath3862)">
      <path
         sodipodi:nodetypes="cccccc"
         inkscape:connector-curvature="0"
         id="path3848"
         d="M 364.27337,284.63518 C 296.52663,255.64257 209.1272,140.98666 237.42904,42.665095 l 7.19474,-31.14564 35.48093,8.279221 C 209.53173,139.25376 333.08746,259.2049 388.46817,296.53492 z"
         style="fill:#684b67;fill-opacity:1;stroke:none;filter:url(#filter3894)" />
      <path
         style="fill:#642c41;fill-opacity:1;stroke:none;filter:url(#filter3886)"
         d="m 218.5625,95 c 0.50289,4.204955 1.08896,8.33357 1.71875,12.40625 C 219.86437,103.36373 219.29752,99.234541 218.5625,95 z m 5.29018,-29.022321 C 216.2949,137.43136 190.6423,222.70881 328.34375,292.09375 c 1.55869,3.60759 3.29956,7.05482 5.1875,10.09375 12.32195,17.02137 33.40517,24.7779 52.625,31.3125 12.70585,8.82278 31.70025,6.21942 27.6875,-6.78125 -16.25404,-28.53898 -36.44938,-40.22931 -50.6875,-50.3125 -17.83784,-12.92545 9.09718,15.25234 -5.0625,10.90625 -13.83638,-6.75642 -27.86293,-14.63111 -38.71875,-25.625 0.8128,4.67948 2.13517,6.18004 3.9375,12.18304 -51.76753,-31.67563 -105.7612,-87.226 -99.45982,-207.892861 z"
         id="path3846"
         inkscape:connector-curvature="0"
         sodipodi:nodetypes="ccccccccccccc" />
      <path
         style="fill:#8c6786;fill-opacity:1;stroke:none;filter:url(#filter3922)"
         d="m 351.53309,111.83996 c -13.04558,-7.28057 -11.75534,25.40337 31.65657,86.64963 31.12242,43.90803 79.57442,143.99761 93.60234,148.21084 C 436.76857,272.06194 401.71062,164.90098 351.53309,111.83996 z"
         id="path3900"
         inkscape:connector-curvature="0"
         sodipodi:nodetypes="cscc" />
      <path
         style="font-size:medium;font-style:normal;font-variant:normal;font-weight:normal;font-stretch:normal;text-indent:0;text-align:start;text-decoration:none;line-height:normal;letter-spacing:normal;word-spacing:normal;text-transform:none;direction:ltr;block-progression:tb;writing-mode:lr-tb;text-anchor:start;baseline-shift:baseline;color:#000000;fill:#866578;fill-opacity:1;stroke:none;stroke-width:1px;marker:none;visibility:visible;display:inline;overflow:visible;filter:url(#filter3932);enable-background:accumulate;font-family:Sans;-inkscape-font-specification:Sans"
         d="m 271.25,39.772321 c -4.97967,42.50367 -7.35082,63.743589 6.90625,107.102679 14.25707,43.35909 45.11795,87.38663 106.40625,132.5625 l 0.0312,0 c 17.87759,12.53573 33.48595,27.33998 40.875,51.09375 7.38905,23.75377 6.54839,56.50726 -8.75,104.90625 l 0.9375,0.3125 c 15.33424,-48.51242 19.53719,-81.47655 12.06425,-105.5 C 422.24751,306.22655 403.9969,289.06971 386.04008,276.47843 324.87239,231.39143 296.34156,189.70576 282.15546,146.5625 261.50499,97.045518 271.97919,74.331112 271.25,39.772321 z"
         id="path3926"
         inkscape:connector-curvature="0"
         sodipodi:nodetypes="csccsccsccc" />
    </g>
    <g
       id="g4203">
      <path
         transform="matrix(0.6942987,0.71968696,-0.71968696,0.6942987,533.82595,-411.84222)"
         d="m 760.35774,418.50562 a 3.5097754,7.1599417 0 1 1 -7.01955,0 3.5097754,7.1599417 0 1 1 7.01955,0 z"
         sodipodi:ry="7.1599417"
         sodipodi:rx="3.5097754"
         sodipodi:cy="418.50562"
         sodipodi:cx="756.84796"
         id="path4195"
         style="fill:#7b5031;fill-opacity:1;fill-rule:nonzero;stroke:none"
         sodipodi:type="arc" />
      <path
         inkscape:connector-curvature="0"
         id="path4197"
         d="m 761.71311,417.84916 c -0.0154,1.64946 -1.20453,3.93293 -3.25,5.90625 -2.04593,1.97375 -4.38224,3.07555 -6.03125,3.03125 -0.009,0.65315 0.14927,1.19781 0.53125,1.59375 1.34583,1.39504 4.74787,0.30798 7.59375,-2.4375 2.84588,-2.74548 4.06458,-6.10496 2.71875,-7.5 -0.37528,-0.389 -0.92455,-0.57375 -1.5625,-0.59375 z"
         style="fill:#69442a;fill-opacity:1;fill-rule:nonzero;stroke:none" />
    </g>
    <g
       id="g4207"
       transform="matrix(1.0951596,-0.38330664,0.36432023,1.1522334,-220.08454,248.0333)">
      <path
         sodipodi:type="arc"
         style="fill:#7b5031;fill-opacity:1;fill-rule:nonzero;stroke:none"
         id="path4209"
         sodipodi:cx="756.84796"
         sodipodi:cy="418.50562"
         sodipodi:rx="3.5097754"
         sodipodi:ry="7.1599417"
         d="m 760.35774,418.50562 c 0,3.95432 -1.57138,7.15994 -3.50978,7.15994 -1.93839,0 -3.50977,-3.20562 -3.50977,-7.15994 0,-3.95433 1.57138,-7.15995 3.50977,-7.15995 1.9384,0 3.50978,3.20562 3.50978,7.15995 z"
         transform="matrix(0.6942987,0.71968696,-0.71968696,0.6942987,533.82595,-411.84222)" />
      <path
         style="fill:#69442a;fill-opacity:1;fill-rule:nonzero;stroke:none"
         d="m 761.71311,417.84916 c -0.0154,1.64946 -1.20453,3.93293 -3.25,5.90625 -2.04593,1.97375 -4.38224,3.07555 -6.03125,3.03125 -0.009,0.65315 0.14927,1.19781 0.53125,1.59375 1.34583,1.39504 4.74787,0.30798 7.59375,-2.4375 2.84588,-2.74548 4.06458,-6.10496 2.71875,-7.5 -0.37528,-0.389 -0.92455,-0.57375 -1.5625,-0.59375 z"
         id="path4211"
         inkscape:connector-curvature="0" />
    </g>
    <g
       id="g4219"
       transform="matrix(0.99264101,-0.12109425,0.12109425,0.99264101,-58.610643,128.0518)">
      <path
         sodipodi:type="arc"
         style="fill:#7b5031;fill-opacity:1;fill-rule:nonzero;stroke:none"
         id="path4221"
         sodipodi:cx="756.84796"
         sodipodi:cy="418.50562"
         sodipodi:rx="3.5097754"
         sodipodi:ry="7.1599417"
         d="m 760.35774,418.50562 c 0,3.95432 -1.57138,7.15994 -3.50978,7.15994 -1.93839,0 -3.50977,-3.20562 -3.50977,-7.15994 0,-3.95433 1.57138,-7.15995 3.50977,-7.15995 1.9384,0 3.50978,3.20562 3.50978,7.15995 z"
         transform="matrix(0.6942987,0.71968696,-0.71968696,0.6942987,533.82595,-411.84222)" />
      <path
         style="fill:#69442a;fill-opacity:1;fill-rule:nonzero;stroke:none"
         d="m 761.71311,417.84916 c -0.0154,1.64946 -1.20453,3.93293 -3.25,5.90625 -2.04593,1.97375 -4.38224,3.07555 -6.03125,3.03125 -0.009,0.65315 0.14927,1.19781 0.53125,1.59375 1.34583,1.39504 4.74787,0.30798 7.59375,-2.4375 2.84588,-2.74548 4.06458,-6.10496 2.71875,-7.5 -0.37528,-0.389 -0.92455,-0.57375 -1.5625,-0.59375 z"
         id="path4223"
         inkscape:connector-curvature="0" />
    </g>
    <g
       transform="matrix(0.96977124,-0.24401586,0.24401586,0.96977124,-100.90118,225.58939)"
       id="g4225">
      <path
         transform="matrix(0.6942987,0.71968696,-0.71968696,0.6942987,533.82595,-411.84222)"
         d="m 760.35774,418.50562 c 0,3.95432 -1.57138,7.15994 -3.50978,7.15994 -1.93839,0 -3.50977,-3.20562 -3.50977,-7.15994 0,-3.95433 1.57138,-7.15995 3.50977,-7.15995 1.9384,0 3.50978,3.20562 3.50978,7.15995 z"
         sodipodi:ry="7.1599417"
         sodipodi:rx="3.5097754"
         sodipodi:cy="418.50562"
         sodipodi:cx="756.84796"
         id="path4227"
         style="fill:#7b5031;fill-opacity:1;fill-rule:nonzero;stroke:none"
         sodipodi:type="arc" />
      <path
         inkscape:connector-curvature="0"
         id="path4229"
         d="m 761.71311,417.84916 c -0.0154,1.64946 -1.20453,3.93293 -3.25,5.90625 -2.04593,1.97375 -4.38224,3.07555 -6.03125,3.03125 -0.009,0.65315 0.14927,1.19781 0.53125,1.59375 1.34583,1.39504 4.74787,0.30798 7.59375,-2.4375 2.84588,-2.74548 4.06458,-6.10496 2.71875,-7.5 -0.37528,-0.389 -0.92455,-0.57375 -1.5625,-0.59375 z"
         style="fill:#69442a;fill-opacity:1;fill-rule:nonzero;stroke:none" />
    </g>
  </g>
</svg>
